# Alias OBJ Model File
# Exported from SketchUp, (c) 2000-2012 Trimble Navigation Limited
# File units = inches

mtllib EndRace.mtl

g Mesh1 Model

usemtl FrontColor
v 0.40111 0.539054 -72.1827
vt -72.1827 0.539054
vn -1 0 -0
v 0.40111 1.42109e-14 -33.9715
vt -33.9715 1.42109e-14
v 0.40111 0.539054 -33.9715
vt -33.9715 0.539054
f 1/1/1 2/2/1 3/3/1

v 0.40111 1.42109e-14 -72.1827
vt -72.1827 1.42109e-14
f 2/2/1 1/1/1 4/4/1

vt -0.40111 0.539054
vn 0 0 -1
v 102.889 1.42109e-14 -72.1827
vt -102.889 1.42109e-14
vt -0.40111 1.42109e-14
f 1/5/2 5/6/2 4/7/2

v 102.889 0.539054 -72.1827
vt -102.889 0.539054
f 5/6/2 1/5/2 6/8/2

usemtl Tile_Checker_BW
vt 0.0334259 6.01522
vn 0 1 -0
v 102.889 0.539054 -33.9715
vt 8.57412 2.83095
vt 8.57412 6.01522
f 1/9/3 7/10/3 6/11/3

vt 0.0334259 2.83095
f 7/10/3 1/9/3 3/12/3

usemtl FrontColor
vt 0.40111 1.42109e-14
vn 0 0 1
vt 102.889 0.539054
vt 0.40111 0.539054
f 2/13/4 7/14/4 3/15/4

v 102.889 1.42109e-14 -33.9715
vt 102.889 1.42109e-14
f 7/14/4 2/13/4 8/16/4

usemtl Tile_Checker_BW
vt -0.0334259 2.83095
vn 0 -1 -0
vt -8.57412 6.01522
vt -8.57412 2.83095
f 2/17/5 5/18/5 8/19/5

vt -0.0334259 6.01522
f 5/18/5 2/17/5 4/20/5

usemtl FrontColor
vt 72.1827 1.42109e-14
vn 1 0 -0
vt 33.9715 0.539054
vt 33.9715 1.42109e-14
f 5/21/6 7/22/6 8/23/6

vt 72.1827 0.539054
f 7/22/6 5/21/6 6/24/6

